<svg width="141" height="36" viewBox="0 0 141 36" fill="none" xmlns="http://www.w3.org/2000/svg">
<path d="M8.08004 27.8833C9.69337 28.6167 11.7467 28.6167 13.36 27.8833C14.9734 27.15 17.0267 27.15 18.64 27.8833C20.2534 28.6167 22.3067 28.6167 23.92 27.8833M16 4V6.66667M5.33329 17.3333H2.66663M8.41878 9.75215L6.53316 7.86654M23.5807 9.75215L25.4663 7.86654M29.3333 17.3333H26.6666M9.33329 17.3333C9.33329 13.6514 12.3181 10.6667 16 10.6667C19.6819 10.6667 22.6666 13.6514 22.6666 17.3333M2.80009 23.2167C4.41342 22.4833 6.46676 22.4833 8.08009 23.2167C9.69342 23.95 11.7468 23.95 13.3601 23.2167C14.9734 22.4833 17.0268 22.4833 18.6401 23.2167C20.2534 23.95 22.3068 23.95 23.9201 23.2167C25.5334 22.4833 27.5868 22.4833 29.2001 23.2167" stroke="#D72600" stroke-width="3" stroke-linecap="square"/>
<path d="M46.4219 10.8359C47.4427 10.8359 48.2812 11 48.9375 11.3281C49.5938 11.6562 50.1133 11.9753 50.4961 12.2852V15.4844C50.0221 15.138 49.4844 14.8464 48.8828 14.6094C48.2995 14.3724 47.5794 14.2539 46.7227 14.2539C46.0299 14.2539 45.3828 14.4271 44.7812 14.7734C44.1979 15.1198 43.7331 15.5846 43.3867 16.168C43.0404 16.7513 42.8672 17.4167 42.8672 18.1641C42.8672 19.2943 43.2318 20.224 43.9609 20.9531C44.6901 21.6823 45.6107 22.0469 46.7227 22.0469C47.5794 22.0469 48.2995 21.9375 48.8828 21.7188C49.4844 21.4818 50.0221 21.1901 50.4961 20.8438V24.0156C50.1133 24.3438 49.5938 24.6628 48.9375 24.9727C48.2812 25.2643 47.4427 25.4102 46.4219 25.4102C45.0182 25.4102 43.7695 25.082 42.6758 24.4258C41.6003 23.7513 40.7435 22.8672 40.1055 21.7734C39.4857 20.6615 39.1758 19.4583 39.1758 18.1641C39.1758 17.1979 39.349 16.2773 39.6953 15.4023C40.0599 14.5273 40.5703 13.7526 41.2266 13.0781C41.8828 12.3854 42.6484 11.8385 43.5234 11.4375C44.4167 11.0365 45.3828 10.8359 46.4219 10.8359ZM84.2711 11.1914V13.1602C84.6904 12.5951 85.2555 12.0664 85.9664 11.5742C86.6956 11.082 87.525 10.8359 88.4547 10.8359C89.8583 10.8359 91.0341 11.3099 91.982 12.2578C92.9299 13.2057 93.4039 14.6276 93.4039 16.5234V25H89.9313L89.9039 16.9883C89.9039 16.0586 89.676 15.3659 89.2203 14.9102C88.7828 14.4544 88.1721 14.2266 87.3883 14.2266C86.7685 14.2266 86.1852 14.4271 85.6383 14.8281C85.1096 15.2292 84.6539 15.7031 84.2711 16.25V25H80.7984V11.1914H84.2711ZM102.565 10.8359C103.586 10.8359 104.425 11 105.081 11.3281C105.737 11.6562 106.257 11.9753 106.639 12.2852V15.4844C106.165 15.138 105.628 14.8464 105.026 14.6094C104.443 14.3724 103.723 14.2539 102.866 14.2539C102.173 14.2539 101.526 14.4271 100.925 14.7734C100.341 15.1198 99.8764 15.5846 99.53 16.168C99.1836 16.7513 99.0105 17.4167 99.0105 18.1641C99.0105 19.2943 99.3751 20.224 100.104 20.9531C100.833 21.6823 101.754 22.0469 102.866 22.0469C103.723 22.0469 104.443 21.9375 105.026 21.7188C105.628 21.4818 106.165 21.1901 106.639 20.8438V24.0156C106.257 24.3438 105.737 24.6628 105.081 24.9727C104.425 25.2643 103.586 25.4102 102.565 25.4102C101.162 25.4102 99.9128 25.082 98.8191 24.4258C97.7435 23.7513 96.8868 22.8672 96.2487 21.7734C95.629 20.6615 95.3191 19.4583 95.3191 18.1641C95.3191 17.1979 95.4922 16.2773 95.8386 15.4023C96.2032 14.5273 96.7136 13.7526 97.3698 13.0781C98.0261 12.3854 98.7917 11.8385 99.6667 11.4375C100.56 11.0365 101.526 10.8359 102.565 10.8359ZM120.805 11.1914V19.4219C120.805 20.6432 120.531 21.7005 119.984 22.5938C119.437 23.4688 118.69 24.1432 117.742 24.6172C116.812 25.0911 115.755 25.3281 114.57 25.3281C113.367 25.3281 112.292 25.0911 111.344 24.6172C110.414 24.1432 109.676 23.4688 109.129 22.5938C108.6 21.7005 108.336 20.6432 108.336 19.4219V11.1914H111.836L111.863 18.793C111.863 19.8685 112.109 20.6706 112.601 21.1992C113.094 21.7279 113.75 21.9922 114.57 21.9922C115.372 21.9922 116.019 21.7279 116.512 21.1992C117.022 20.6706 117.277 19.8685 117.277 18.793V11.1914H120.805ZM127.122 11.1914V13.1602C127.541 12.5951 128.106 12.0664 128.817 11.5742C129.547 11.082 130.376 10.8359 131.306 10.8359C132.709 10.8359 133.885 11.3099 134.833 12.2578C135.781 13.2057 136.255 14.6276 136.255 16.5234V25H132.782L132.755 16.9883C132.755 16.0586 132.527 15.3659 132.071 14.9102C131.634 14.4544 131.023 14.2266 130.239 14.2266C129.619 14.2266 129.036 14.4271 128.489 14.8281C127.961 15.2292 127.505 15.7031 127.122 16.25V25H123.649V11.1914H127.122Z" fill="#D72600"/>
<rect x="53" y="8" width="26" height="20" rx="4" fill="url(#paint0_linear_13_2)"/>
<path d="M61.559 11.7153L67.5907 24.7647H64.4395L63.4535 22.3482H58.3305L57.3445 24.7647H54.1933L60.225 11.7153H61.559ZM60.9017 16.1038L59.2777 20.0669H62.5256L60.9017 16.1038ZM76.6769 22.3482V24.7647H69.6206V22.3482H71.8051V14.2286H69.6206V11.812H76.6769V14.2286H74.4923V22.3482H76.6769Z" fill="#9B373C"/>
<defs>
<linearGradient id="paint0_linear_13_2" x1="66" y1="8" x2="66" y2="28" gradientUnits="userSpaceOnUse">
<stop stop-color="#FFB24D"/>
<stop offset="1" stop-color="#E7D729"/>
</linearGradient>
</defs>
</svg>
